<svg xmlns="http://www.w3.org/2000/svg" width="769.89" height="243.16" viewBox="0 0 769.89 243.16"><title>logo</title><g id="Layer_2" data-name="Layer 2"><g id="Layer_1-2" data-name="Layer 1"><polygon points="640.25 67.12 620.7 67.12 620.7 84.28 640.25 67.12" style="fill:#ee7524;fill-rule:evenodd"/><path d="M339.63,111.73h21.19V96.37H339.63V74.73h-18.2V96.37h-10v15.36h10v41.58a31.09,31.09,0,0,0,1.67,11,17.29,17.29,0,0,0,4.72,7.12,18.92,18.92,0,0,0,7.31,3.88,33.5,33.5,0,0,0,9.13,1.19,34.41,34.41,0,0,0,8.95-1,31.36,31.36,0,0,0,7.31-3V157.68a24.72,24.72,0,0,1-11.19,2.69q-4.62,0-7.16-2.32c-1.69-1.54-2.54-4.07-2.54-7.55Z" style="fill:#3a3e4e;fill-rule:evenodd"/><path d="M390.36,142.17h57.88c.1-.9.18-1.74.23-2.54s.07-1.59.07-2.39A55,55,0,0,0,446.15,121a40.06,40.06,0,0,0-7.08-13.57,33.83,33.83,0,0,0-11.79-9.25,37.36,37.36,0,0,0-16.48-3.44A36.12,36.12,0,0,0,395.28,98a38.45,38.45,0,0,0-12.16,8.87,40.08,40.08,0,0,0-8,13.06,44.52,44.52,0,0,0-2.83,16,43.25,43.25,0,0,0,3.13,16.78,38.09,38.09,0,0,0,21.41,21.26,42,42,0,0,0,15.88,3q10.9,0,18.73-4A43.76,43.76,0,0,0,445,162.16l-10.59-9.4a38,38,0,0,1-9.7,7A26.43,26.43,0,0,1,413,162.16,22.42,22.42,0,0,1,398.11,157q-6.11-5.14-7.75-14.84Zm-.15-11.94q1.19-9.25,6.64-15a18.2,18.2,0,0,1,13.8-5.75,18.54,18.54,0,0,1,8,1.65,19.12,19.12,0,0,1,6,4.4,20.87,20.87,0,0,1,4,6.56,31.18,31.18,0,0,1,1.94,8.13Z" style="fill:#3a3e4e;fill-rule:evenodd"/><path d="M484.94,130.78c0-6.14,1.62-10.94,4.87-14.35a16.79,16.79,0,0,1,12.74-5.15q8,0,12.35,5c2.91,3.31,4.35,8.06,4.35,14.2v44.66h18.21V125q0-13.87-7.29-22.08t-20.69-8.21a28.34,28.34,0,0,0-8.25,1.12A27.31,27.31,0,0,0,494.54,99a26.85,26.85,0,0,0-5.35,4.43,44.26,44.26,0,0,0-4.25,5.34V96.37h-18.2v78.77h18.2Z" style="fill:#3a3e4e;fill-rule:evenodd"/><path d="M581.17,111.73h21.18V96.37H581.17V74.73H563V96.37H553v15.36h10v41.58a31.11,31.11,0,0,0,1.66,11,17.31,17.31,0,0,0,4.73,7.12,18.84,18.84,0,0,0,7.31,3.88,33.37,33.37,0,0,0,9.12,1.19,34.36,34.36,0,0,0,9-1,31,31,0,0,0,7.31-3V157.68a24.72,24.72,0,0,1-11.19,2.69q-4.62,0-7.16-2.32c-1.69-1.54-2.53-4.07-2.53-7.55Z" style="fill:#3a3e4e;fill-rule:evenodd"/><rect x="621.45" y="96.37" width="18.2" height="78.77" style="fill:#3a3e4e"/><path d="M729.16,175.14v-46.7q0-15.81-8.5-24.54t-26.11-8.73A66.56,66.56,0,0,0,678,97a83.64,83.64,0,0,0-13.43,4.78l4.93,14.47a77.73,77.73,0,0,1,10.59-3.58A47.83,47.83,0,0,1,692,111.28q9.4,0,14.4,4.33t5,12.53v1.94a73.49,73.49,0,0,0-9.62-2.38,70,70,0,0,0-12.16-.9,49.29,49.29,0,0,0-12.76,1.57,29.65,29.65,0,0,0-10.14,4.7,21.64,21.64,0,0,0-6.64,7.9,24.73,24.73,0,0,0-2.39,11.19v.3a22.47,22.47,0,0,0,8.43,18.13,26.51,26.51,0,0,0,8.88,4.62,36.32,36.32,0,0,0,10.74,1.57A32.37,32.37,0,0,0,701,173.49a33.69,33.69,0,0,0,10.3-8.05v9.7Zm-17.45-28.5a14.73,14.73,0,0,1-1.57,6.79,15.18,15.18,0,0,1-4.4,5.22A21.5,21.5,0,0,1,699.1,162a27.75,27.75,0,0,1-8.28,1.19,18.84,18.84,0,0,1-10.82-3,9.83,9.83,0,0,1-4.4-8.66v-.29a10.71,10.71,0,0,1,4.78-9.4q4.77-3.28,13.27-3.28a52.78,52.78,0,0,1,9.93.89,46.17,46.17,0,0,1,8.13,2.24Z" style="fill:#3a3e4e;fill-rule:evenodd"/><rect x="751.69" y="66.23" width="18.2" height="108.91" style="fill:#3a3e4e"/><rect x="273.54" y="96.37" width="18.2" height="78.77" style="fill:#3a3e4e"/><polygon points="292.34 67.12 272.8 67.12 272.8 84.28 292.34 67.12" style="fill:#1094d3;fill-rule:evenodd"/><path d="M52.65,30.39l-38.8,22.4q8.08,5.66,15.74,11.87L105.29,21,181,64.66q7.65-6.21,15.74-11.87l-38.8-22.4L105.29,0,52.65,30.39Zm52.64,59.18A236.9,236.9,0,0,1,50,83.07a270.84,270.84,0,0,1,19.44,21.61,255.19,255.19,0,0,0,35.84,2.51,255.19,255.19,0,0,0,35.84-2.51,270.84,270.84,0,0,1,19.44-21.61A236.9,236.9,0,0,1,105.29,89.57Z" style="fill:#1094d3;fill-rule:evenodd"/><path d="M18.15,118A223.82,223.82,0,0,0,0,101.43v80.94l52.65,30.39,24.17,14a218.53,218.53,0,0,0-6.9-24.94L18.15,171.89V118ZM192.43,97.51A236.4,236.4,0,0,0,122,212.4c0,.06,0,.12,0,.19a234.58,234.58,0,0,0-5,23.85l-5,2.91-6.59,3.81-6.6-3.81-5-2.91a231.88,231.88,0,0,0-5-23.85c0-.07,0-.13,0-.19A236.4,236.4,0,0,0,18.15,97.51Q9.45,89.7,0,82.74V61.26q9.38,6.2,18.15,13.18a254.66,254.66,0,0,1,79.25,108,249.74,249.74,0,0,1,7.89,24.16,249.74,249.74,0,0,1,7.89-24.16,254.66,254.66,0,0,1,79.25-108q8.77-7,18.15-13.18V82.74q-9.45,6.95-18.15,14.77Zm0,74.38-51.78,29.89a220.57,220.57,0,0,0-6.89,24.94l24.17-14,52.65-30.39V101.43A225.55,225.55,0,0,0,192.43,118Z" style="fill:#3a3e4e;fill-rule:evenodd"/></g></g></svg>